<!DOCTYPE svg PUBLIC "-//W3C//DTD SVG 1.1//EN" "http://www.w3.org/Graphics/SVG/1.1/DTD/svg11.dtd">
<!-- Uploaded to: SVG Repo, www.svgrepo.com, Transformed by: SVG Repo Mixer Tools -->
<svg fill="#3f8eca" version="1.1" id="Capa_1" xmlns="http://www.w3.org/2000/svg" xmlns:xlink="http://www.w3.org/1999/xlink" width="206px" height="206px" viewBox="-9.87 -9.87 118.48 118.48" xml:space="preserve" stroke="#3f8eca" stroke-width="0.00098736">
<g id="SVGRepo_bgCarrier" stroke-width="0">
<path transform="translate(-9.87, -9.87), scale(3.7024999999999997)" d="M16,30.91010448212425C18.423454759231326,30.932585724301426,19.29185506713057,27.44981480110461,21.28788457660976,26.075222289274627C22.990332557603377,24.902808637402064,25.69908204314248,25.204955689176945,26.81293611043583,23.463630901591223C27.932434603247035,21.713481997494625,26.41994753122264,19.346311151769093,26.88701152192138,17.321922530355298C27.42891330996865,14.973165538822917,30.310504705953214,13.131495590080712,29.73691415457272,10.790275644725707C29.185716682855023,8.540457352724792,26.02699938839718,8.174705843465107,24.274800363369472,6.659681230944951C22.547269562629637,5.165985797593069,21.675829364554268,2.5124908673417696,19.471744203553758,1.9145800728427496C17.270830063506462,1.3175294935890638,15.082440983324883,2.8037004253207036,12.939934934530395,3.5848279929601556C10.982351116388408,4.298535516528635,9.217740434490537,5.264418936326844,7.4155097182386776,6.310113576098859C5.242584072323472,7.570893719321728,2.0742782624425598,8.032036904742764,1.2099022195571578,10.390855780516585C0.3428254751160239,12.75704467291676,2.616474546211019,15.116410934370245,3.2996083641549596,17.542106740123707C3.8781113224201302,19.596275575891912,3.5254592825537934,22.0361704246138,4.939610342162371,23.634435752765167C6.3466438595643435,25.224656875982998,8.989420282508169,24.81067304117294,10.763356159779981,25.977591223030018C12.79626859491227,27.314867566032646,13.566785767469367,30.887532705934863,16,30.91010448212425" fill="#f0f0ef" strokewidth="0"/>
</g>
<g id="SVGRepo_tracerCarrier" stroke-linecap="round" stroke-linejoin="round" stroke="#CCCCCC" stroke-width="0.5924159999999999"/>
<g id="SVGRepo_iconCarrier"> <g> <g> <path d="M26.417,56.739c0-5.115,1.688-9.838,4.528-13.656c-2.974-2.673-6.893-4.313-11.205-4.313 c-9.272,0-16.789,7.518-16.789,16.789c0,0,3.95,35.276,16.789,35.276c4.962,0,8.592-5.274,11.184-11.739 c-3.025-9.953-4.248-19.888-4.488-22.026L26.417,56.739z"/> <path d="M19.74,37.554c5.617,0,10.503-3.125,13.02-7.729c-2.513-3.413-4.006-7.619-4.006-12.173c0-2.066,0.313-4.06,0.882-5.943 c-2.625-2.358-6.088-3.808-9.896-3.808c-8.188,0-14.826,6.639-14.826,14.827C4.914,30.915,11.552,37.554,19.74,37.554z"/> <path d="M78.996,38.77c-4.312,0-8.23,1.64-11.205,4.313c2.842,3.818,4.528,8.541,4.528,13.656l-0.019,0.33 c-0.24,2.14-1.463,12.073-4.488,22.026c2.592,6.465,6.222,11.739,11.184,11.739c12.839,0,16.789-35.276,16.789-35.276 C95.785,46.288,88.268,38.77,78.996,38.77z"/> <path d="M65.977,29.824c2.517,4.604,7.401,7.729,13.02,7.729c8.188,0,14.826-6.639,14.826-14.826 c0-8.188-6.639-14.827-14.826-14.827c-3.809,0-7.271,1.449-9.896,3.808c0.568,1.884,0.883,3.877,0.883,5.943 C69.982,22.205,68.489,26.411,65.977,29.824z"/> <path d="M49.368,36.751c-11.039,0-19.988,8.949-19.988,19.988c0,0,4.704,41.997,19.988,41.997s19.987-41.997,19.987-41.997 C69.355,45.7,60.407,36.751,49.368,36.751z"/> <circle cx="49.368" cy="17.651" r="17.651"/> </g> </g> </g>
</svg>